<svg xmlns="http://www.w3.org/2000/svg" xmlns:xlink="http://www.w3.org/1999/xlink" viewBox="0 0 64.75 70.13"><defs><style>.cls-1{fill:url(#linear-gradient);}.cls-2{fill:#303f9f;}</style><linearGradient id="linear-gradient" x1="10.75" y1="10.69" x2="59.34" y2="59.29" gradientUnits="userSpaceOnUse"><stop offset="0.01" stop-color="#fff"/><stop offset="1" stop-color="#fbfbfb"/></linearGradient></defs><title>logo-nirlan</title><g id="Layer_1" data-name="Layer 1"><path class="cls-1" d="M2.66,44.11l0,1A14.8,14.8,0,0,0,10,57.95l5.18,3h0l.44.28,0,0,11.93,6.88a14.8,14.8,0,0,0,14.31.26l.48-.26L46.7,65.6c-.06-.69,0-.58,0,.09l.36-.21v-.1h0L60,57.94a14.79,14.79,0,0,0,7.39-12.81V34.28h0V31.37h0v-6.5a14.8,14.8,0,0,0-.22-2.58l.11,0a14.8,14.8,0,0,0-6.29-9.68l-.11,0q-.39-.26-.81-.5L42.45,1.92a14.79,14.79,0,0,0-14.79,0L10.1,12.05A14.79,14.79,0,0,0,2.7,24.87v3.22h0v16m44,15v0Z" transform="translate(-2.62 0.06)"/></g><g id="Layer_4" data-name="Layer 4"><path class="cls-2" d="M35.77,48.28H29.31L19.76,31.51V48.28h-6.5V21.33h6.5L29.29,38.1V21.33h6.48Z" transform="translate(-2.62 0.06)"/><path class="cls-2" d="M44.32,43.28H60v5H35.77V44.85L51.9,26.35H35v-5H59.91v3.33Z" transform="translate(-2.62 0.06)"/></g></svg>